<?xml version="1.0" encoding="UTF-8" standalone="no"?>
<!-- Created with Inkscape (http://www.inkscape.org/) -->

<svg
   version="1.1"
   id="svg1"
   width="414.58667"
   height="143.44"
   viewBox="0 0 414.58667 143.44"
   sodipodi:docname="BlockI-NCSA-Reversed-Orange-RGB.eps"
   xmlns:inkscape="http://www.inkscape.org/namespaces/inkscape"
   xmlns:sodipodi="http://sodipodi.sourceforge.net/DTD/sodipodi-0.dtd"
   xmlns="http://www.w3.org/2000/svg"
   xmlns:svg="http://www.w3.org/2000/svg">
  <defs
     id="defs1" />
  <sodipodi:namedview
     id="namedview1"
     pagecolor="#ffffff"
     bordercolor="#000000"
     borderopacity="0.25"
     inkscape:showpageshadow="2"
     inkscape:pageopacity="0.0"
     inkscape:pagecheckerboard="0"
     inkscape:deskcolor="#d1d1d1">
    <inkscape:page
       x="0"
       y="0"
       inkscape:label="1"
       id="page1"
       width="414.58667"
       height="143.44"
       margin="0"
       bleed="0" />
  </sodipodi:namedview>
  <g
     id="g1"
     inkscape:groupmode="layer"
     inkscape:label="1">
    <g
       id="group-R5">
      <path
         id="path2"
         d="m 426.559,324.637 h 91.402 V 172.301 H 30.4609 v 152.336 h 91.4141 c 16.813,0 30.461,13.648 30.461,30.468 v 365.618 c 0,16.836 -13.648,30.472 -30.461,30.472 H 30.4609 V 903.531 H 517.961 V 751.195 h -91.402 c -16.832,0 -30.469,-13.636 -30.469,-30.472 V 355.105 c 0,-16.82 13.637,-30.468 30.469,-30.468 z M 548.426,720.723 V 934.004 H 0 V 720.723 H 121.875 V 355.105 H 0 V 141.828 H 548.426 V 355.105 H 426.559 v 365.618 h 121.867"
         style="fill:#ffffff;fill-opacity:1;fill-rule:nonzero;stroke:none"
         transform="matrix(0.13333333,0,0,-0.13333333,0,143.44)" />
      <path
         id="path3"
         d="m 426.559,751.195 h 91.402 V 903.531 H 30.4609 V 751.195 h 91.4141 c 16.813,0 30.461,-13.636 30.461,-30.472 V 355.105 c 0,-16.82 -13.648,-30.468 -30.461,-30.468 H 30.4609 V 172.301 H 517.961 v 152.336 h -91.402 c -16.832,0 -30.469,13.648 -30.469,30.468 v 365.618 c 0,16.836 13.637,30.472 30.469,30.472"
         style="fill:#f14d1c;fill-opacity:1;fill-rule:nonzero;stroke:none"
         transform="matrix(0.13333333,0,0,-0.13333333,0,143.44)" />
      <path
         id="path4"
         d="m 969.449,0 h -24.937 v 1075.83 h 24.937 V 0"
         style="fill:#ffffff;fill-opacity:1;fill-rule:nonzero;stroke:none"
         transform="matrix(0.13333333,0,0,-0.13333333,0,143.44)" />
      <path
         id="path5"
         d="m 1363.75,290.156 v 495.52 h 114.76 l 129.2,-246.238 48.63,-109.442 h 3.05 c -2.54,26.336 -5.45,55.731 -8.74,88.16 -3.31,32.418 -4.95,63.328 -4.95,92.719 v 174.801 h 106.41 v -495.52 h -114.77 l -129.19,247 -48.64,107.922 h -3.04 c 2.52,-27.363 5.44,-56.754 8.74,-88.164 3.29,-31.422 4.94,-61.82 4.94,-91.195 V 290.156 h -106.4"
         style="fill:#ffffff;fill-opacity:1;fill-rule:nonzero;stroke:none"
         transform="matrix(0.13333333,0,0,-0.13333333,0,143.44)" />
      <path
         id="path6"
         d="m 2060.66,281.035 c -31.42,0 -61.06,5.453 -88.92,16.344 -27.87,10.887 -52.32,26.976 -73.34,48.258 -21.03,21.277 -37.62,47.746 -49.78,79.422 -12.16,31.656 -18.24,68.265 -18.24,109.82 0,41.039 6.33,77.637 19,109.82 12.66,32.164 29.64,59.399 50.92,81.699 21.28,22.29 46.1,39.258 74.48,50.918 28.37,11.649 58.26,17.481 89.68,17.481 31.92,0 60.54,-6.461 85.88,-19.383 25.33,-12.918 46.36,-27.996 63.08,-45.219 l -59.28,-71.441 c -12.67,11.652 -25.97,21.152 -39.9,28.504 -13.94,7.336 -29.77,11.019 -47.5,11.019 -16.72,0 -32.56,-3.683 -47.5,-11.019 -14.95,-7.352 -27.87,-17.863 -38.76,-31.539 -10.9,-13.684 -19.51,-30.403 -25.84,-50.16 -6.34,-19.762 -9.5,-42.063 -9.5,-66.883 0,-51.18 10.89,-90.821 32.68,-118.938 21.78,-28.121 50.92,-42.179 87.4,-42.179 20.26,0 38.38,4.429 54.34,13.296 15.96,8.864 30.02,19.883 42.18,33.059 l 59.28,-69.922 c -41.55,-48.637 -95,-72.957 -160.36,-72.957"
         style="fill:#ffffff;fill-opacity:1;fill-rule:nonzero;stroke:none"
         transform="matrix(0.13333333,0,0,-0.13333333,0,143.44)" />
      <path
         id="path7"
         d="m 2441.42,281.035 c -32.44,0 -64.74,5.961 -96.91,17.863 -32.18,11.899 -60.93,29.758 -86.26,53.579 l 63.84,76.761 c 17.73,-15.199 37.36,-27.621 58.9,-37.242 21.53,-9.633 42.68,-14.437 63.46,-14.437 23.3,0 40.66,4.296 52.06,12.921 11.4,8.606 17.1,20.258 17.1,34.954 0,7.601 -1.65,14.179 -4.94,19.761 -3.3,5.571 -8.11,10.512 -14.44,14.821 -6.34,4.3 -13.94,8.359 -22.8,12.164 -8.87,3.797 -18.62,7.976 -29.26,12.539 l -64.6,27.355 c -12.67,5.059 -24.96,11.653 -36.86,19.762 -11.91,8.102 -22.55,17.598 -31.92,28.5 -9.38,10.891 -16.85,23.562 -22.42,38 -5.58,14.441 -8.36,30.781 -8.36,49.023 0,20.258 4.3,39.387 12.92,57.379 8.61,17.977 20.77,33.692 36.48,47.117 15.7,13.418 34.32,23.942 55.86,31.543 21.53,7.598 45.22,11.399 71.06,11.399 28.88,0 57.38,-5.582 85.5,-16.723 28.12,-11.148 52.82,-27.355 74.1,-48.636 l -57,-70.684 c -16.22,12.66 -32.43,22.422 -48.64,29.266 -16.22,6.839 -34.2,10.257 -53.96,10.257 -19.26,0 -34.58,-3.929 -45.98,-11.785 -11.4,-7.859 -17.1,-18.875 -17.1,-33.054 0,-7.602 1.9,-14.063 5.7,-19.379 3.8,-5.325 9.12,-10.145 15.96,-14.446 6.84,-4.304 14.82,-8.359 23.94,-12.156 9.12,-3.801 19,-7.98 29.64,-12.539 l 63.84,-25.84 c 30.4,-12.164 54.34,-28.883 71.82,-50.164 17.48,-21.277 26.22,-49.398 26.22,-84.359 0,-20.782 -4.18,-40.41 -12.54,-58.899 -8.36,-18.504 -20.52,-34.711 -36.48,-48.64 -15.96,-13.942 -35.6,-25.078 -58.9,-33.442 -23.31,-8.359 -49.66,-12.539 -79.03,-12.539"
         style="fill:#ffffff;fill-opacity:1;fill-rule:nonzero;stroke:none"
         transform="matrix(0.13333333,0,0,-0.13333333,0,143.44)" />
      <path
         id="path8"
         d="m 2844.21,540.957 -12.17,-45.602 h 105.65 l -11.4,45.602 c -7.11,24.82 -13.95,51.168 -20.53,79.039 -6.59,27.859 -13.17,54.723 -19.75,80.563 h -3.04 c -6.08,-26.356 -12.3,-53.332 -18.62,-80.946 -6.34,-27.617 -13.06,-53.836 -20.14,-78.656 z m -179.37,-250.801 155.04,495.52 h 134.53 l 155.03,-495.52 h -118.55 l -30.4,117.797 h -151.24 l -30.4,-117.797 h -114.01"
         style="fill:#ffffff;fill-opacity:1;fill-rule:nonzero;stroke:none"
         transform="matrix(0.13333333,0,0,-0.13333333,0,143.44)" />
    </g>
  </g>
</svg>
