<svg xmlns="http://www.w3.org/2000/svg" viewBox="0 13.949999809265137 37.900001525878906 36.89999771118164" data-asc="1.004" width="37.900001525878906" height="36.89999771118164"><defs/>
    <g fill="#000000">
        <g transform="translate(0, 0)">
            <path d="M0 46.10Q0 46.10 0 45.03Q0 43.95 1.65 42.60Q3.30 41.25 5.60 41.25Q7.90 41.25 10.35 42.35Q10.60 41.75 11.53 38.88Q12.45 36 13.25 31.33Q14.05 26.65 14.05 24.70Q14.05 22.75 12.95 21.75L12.95 21.25Q15.85 19.75 19.75 19.75L21.85 19.95Q22.10 20.55 22.10 22.25Q22.10 27.85 20.10 34.08Q18.10 40.30 14.90 44.70Q18.50 46.60 20.85 46.60Q23.20 46.60 25.08 44.48Q26.95 42.35 28.00 39.20Q30.25 32.70 30.25 27.43Q30.25 22.15 27.45 19.60Q24.65 17.05 19.13 17.05Q13.60 17.05 8.93 20.20Q4.25 23.35 4.25 27.50Q4.25 29.25 5.10 30.10Q5.95 30.95 7.40 31.45Q7.35 33.35 6.30 35.30Q4.25 34.90 2.60 33.03Q0.95 31.15 0.95 27.90Q0.95 21.90 6.65 17.93Q12.35 13.95 20.90 13.95Q28.10 13.95 32.85 17.30Q35.25 19 36.57 21.98Q37.90 24.95 37.90 29.58Q37.90 34.20 35.85 39.18Q33.80 44.15 29.88 47.50Q25.95 50.85 21.43 50.85Q16.90 50.85 12.20 47.70Q8.85 50.80 5.40 50.80Q3.05 50.80 1.52 49.53Q0 48.25 0 46.10M5.25 47Q7.10 47 8.55 45.30Q6.70 44.25 5.60 44.25Q3.30 44.25 3.30 45.60Q3.30 46.20 3.80 46.60Q4.30 47 5.25 47Z"/>
        </g>
    </g>
    <style>
        path { fill: #150E21; }
        @media (prefers-color-scheme: dark) {
        path { fill: #A5B4FC; }
        }
    </style>
</svg>